<?xml version="1.0" encoding="UTF-8"?>
<svg width="46px" height="48px" viewBox="0 0 46 48" version="1.1" xmlns="http://www.w3.org/2000/svg" xmlns:xlink="http://www.w3.org/1999/xlink">
    <!-- Generator: Sketch 53.2 (72643) - https://sketchapp.com -->
    <title>Group 9</title>
    <desc>Created with Sketch.</desc>
    <g id="Page-1" stroke="none" stroke-width="1" fill="none" fill-rule="evenodd">
        <g id="04-PC-–-tratamientos" transform="translate(-277.000000, -3112.000000)" stroke="#1D1D1B" stroke-width="2">
            <g id="Group-5" transform="translate(0.000000, 2239.000000)">
                <g id="Group-4">
                    <g id="Group-3" transform="translate(159.000000, 840.000000)">
                        <g id="Group-2" transform="translate(83.000000, 33.000000)">
                            <g id="Iocn-resultado" transform="translate(0.000000, 1.000000)">
                                <g id="Group-9" transform="translate(36.000000, 0.000000)">
                                    <path d="M38.8401554,36.7645501 L25.6664476,36.7645501 L16.5746041,45.7239102 C15.9738273,46.3163427 14.9747236,45.8939478 14.9536899,45.0397114 L14.7525545,36.7645501 L5.15984464,36.7645501 C2.30976994,36.7645501 0,34.3934707 0,31.4677451 L0,5.29680502 C0,2.37107934 2.30976994,0 5.15984464,0 L38.8401554,0 C41.6902301,0 44,2.37107934 44,5.29680502 L44,31.4677451 C44,34.3934707 41.6902301,36.7645501 38.8401554,36.7645501 Z" id="Stroke-1"></path>
                                    <path d="M25,15 C25,13.3426124 26.3426124,12 28,12 C29.6573876,12 31,13.3426124 31,15 C31,16.6573876 29.6573876,18 28,18 C26.3426124,18 25,16.6573876 25,15 Z" id="Stroke-3"></path>
                                    <path d="M13,15 C13,13.3426124 14.3426124,12 16,12 C17.6573876,12 19,13.3426124 19,15 C19,16.6573876 17.6573876,18 16,18 C14.3426124,18 13,16.6573876 13,15 Z" id="Stroke-5"></path>
                                    <path d="M14,24 C14.1092578,24.0377719 15.7,24.8539142 17.4754399,25.7698821 C20.6465187,27.4075627 24.375593,27.4102607 27.5479725,25.7766271 L31,24" id="Stroke-7"></path>
                                </g>
                            </g>
                        </g>
                    </g>
                </g>
            </g>
        </g>
    </g>
</svg>