<?xml version="1.0" encoding="UTF-8"?>
<svg width="55px" height="52px" viewBox="0 0 55 52" version="1.1" xmlns="http://www.w3.org/2000/svg" xmlns:xlink="http://www.w3.org/1999/xlink">
    <!-- Generator: Sketch 53.2 (72643) - https://sketchapp.com -->
    <title>Group 17</title>
    <desc>Created with Sketch.</desc>
    <g id="Page-1" stroke="none" stroke-width="1" fill="none" fill-rule="evenodd">
        <g id="04-PC-–-tratamientos" transform="translate(-1108.000000, -3114.000000)" stroke="#1D1D1B" stroke-width="2">
            <g id="Group-5" transform="translate(0.000000, 2239.000000)">
                <g id="Group-4">
                    <g id="Group-3" transform="translate(159.000000, 840.000000)">
                        <g id="Group-2" transform="translate(83.000000, 33.000000)">
                            <g id="Icon-Anestesia" transform="translate(829.000000, 3.000000)">
                                <g id="Group-17" transform="translate(38.000000, 0.000000)">
                                    <path d="M19.702556,47.9941867 L6.19837754,46.3333052 L6.00250058,32.5503186 C5.97336186,31.9611883 6.19999636,31.3887001 6.62412663,30.9926182 L33.9546284,5.38874859 C34.5471157,4.83456669 35.4649854,4.87783615 36.0056706,5.48693698 L48.6211181,19.7209244 C49.1601844,20.3300252 49.119714,21.2736323 48.5272267,21.8278142 L21.1352098,47.4882669 C20.7466935,47.8527288 20.227053,48.0357919 19.702556,47.9941867 Z" id="Stroke-1"></path>
                                    <path d="M0,50 L6,45" id="Stroke-3"></path>
                                    <path d="M31,0 L53,24" id="Stroke-5"></path>
                                    <path d="M42,13 L49,7" id="Stroke-7"></path>
                                    <path d="M45,2 L53,11" id="Stroke-9"></path>
                                    <path d="M29,10 L37,19" id="Stroke-11"></path>
                                    <path d="M8,29 L16,38" id="Stroke-13"></path>
                                    <path d="M18,19 L23,25" id="Stroke-15"></path>
                                </g>
                            </g>
                        </g>
                    </g>
                </g>
            </g>
        </g>
    </g>
</svg>