<?xml version="1.0" encoding="UTF-8"?>
<svg width="53px" height="50px" viewBox="0 0 53 50" version="1.1" xmlns="http://www.w3.org/2000/svg" xmlns:xlink="http://www.w3.org/1999/xlink">
    <!-- Generator: Sketch 53.2 (72643) - https://sketchapp.com -->
    <title>Group 24</title>
    <desc>Created with Sketch.</desc>
    <g id="Page-1" stroke="none" stroke-width="1" fill="none" fill-rule="evenodd">
        <g id="04-PC-–-tratamientos" transform="translate(-828.000000, -3114.000000)" stroke="#1D1D1B" stroke-width="2">
            <g id="Group-5" transform="translate(0.000000, 2239.000000)">
                <g id="Group-4">
                    <g id="Group-3" transform="translate(159.000000, 840.000000)">
                        <g id="Group-2" transform="translate(83.000000, 33.000000)">
                            <g id="Icon-Duración" transform="translate(548.000000, 2.000000)">
                                <g id="Group-24" transform="translate(39.000000, 0.000000)">
                                    <path d="M45.019271,49 L5.98072901,49 C2.67723334,49 0,46.3557611 0,43.092978 L0,17.3955512 L0,13.907022 C0,10.6442389 2.67723334,8 5.98072901,8 L45.019271,8 C48.3227667,8 51,10.6442389 51,13.907022 L51,43.092978 C51,46.3557611 48.3227667,49 45.019271,49 Z" id="Stroke-1"></path>
                                    <path d="M51,17 L0,17" id="Stroke-3"></path>
                                    <path d="M26,26 L26,42" id="Stroke-5"></path>
                                    <path d="M34,35 L17,35" id="Stroke-7"></path>
                                    <path d="M6.3662,7.7877037 L6.3662,0.804" id="Stroke-9"></path>
                                    <path d="M46.10375,7.7877037 L46.10375,0.804" id="Stroke-12"></path>
                                    <path d="M25.8525,7.7877037 L25.8525,0.804" id="Stroke-15"></path>
                                    <path d="M14.9282,7.7877037 L14.9282,0.804" id="Stroke-18"></path>
                                    <path d="M35.95795,7.7877037 L35.95795,0.804" id="Stroke-21"></path>
                                </g>
                            </g>
                        </g>
                    </g>
                </g>
            </g>
        </g>
    </g>
</svg>