<?xml version="1.0" encoding="UTF-8"?>
<svg width="34px" height="34px" viewBox="0 0 34 34" version="1.1" xmlns="http://www.w3.org/2000/svg" xmlns:xlink="http://www.w3.org/1999/xlink">
    <!-- Generator: Sketch 55.2 (78181) - https://sketchapp.com -->
    <title>Implantología</title>
    <desc>Created with Sketch.</desc>
    <g id="Page-1" stroke="none" stroke-width="1" fill="none" fill-rule="evenodd">
        <g id="Artboard" transform="translate(-174.000000, -132.000000)" fill="#000000" fill-rule="nonzero">
            <g id="Implantología" transform="translate(174.000000, 132.000000)">
                <path d="M33.9195803,9.09000712 C33.7044448,6.93302441 33.0577019,5.09177877 31.9980591,3.61745284 C29.8493761,0.629583116 26.7840285,0.116427292 25.5653725,0.0333385899 C23.0799556,-0.134832943 21.6341378,0.365693398 20.3586913,0.807725293 C19.3565071,1.15470371 18.4111133,1.48240555 17.0000379,1.48240555 C15.5889624,1.48240555 14.6429005,1.15470371 13.6413844,0.807725293 C12.3659379,0.366358108 10.9201201,-0.134832943 8.4347032,0.0333385899 C7.21604716,0.116427292 4.15069963,0.629583116 2.00201661,3.61811755 C0.942373807,5.09244348 0.296967156,6.93368912 0.0804953596,9.09000712 C-0.163369473,11.5288267 0.147307642,14.3837545 1.0065136,17.5756901 C2.55455419,23.3360636 4.58965632,27.7683473 7.05502956,30.7489053 C9.03935436,33.148507 10.8305917,34 11.7612868,34 C13.0434145,34 13.9861358,33.4416439 14.5633939,32.338226 C15.021058,31.4634681 15.1900931,30.3753385 15.3531151,29.3231031 C15.679159,27.2173031 15.9330457,26.2940214 17.0000379,26.2940214 C18.06703,26.2940214 18.3209167,27.2173031 18.6469606,29.3231031 C18.8099826,30.3753385 18.981022,31.4634681 19.4366818,32.338226 C20.0139399,33.4396498 20.9566612,34 22.2387889,34 C23.169484,34 24.9607213,33.148507 26.9450461,30.7489053 C29.4104194,27.7676826 31.4455215,23.3360636 32.9935621,17.5763548 C33.8520999,14.3844192 34.1634452,11.5294914 33.9195803,9.09000712 Z M31.7027488,17.2326999 C29.8360136,24.1789154 27.5243086,27.9564602 25.9134645,29.9040593 C24.1850307,31.9945711 22.6911081,32.6705808 22.2387889,32.6705808 C20.6874077,32.6705808 20.3413201,31.534592 19.9671713,29.1223608 C19.8215206,28.1817967 19.6705248,27.2093266 19.3057297,26.4515576 C18.8306944,25.4671227 18.0550038,24.967261 17.0000379,24.9665963 C15.9450719,24.9665963 15.1687132,25.4664579 14.6936778,26.4515576 C14.3288828,27.2093266 14.177887,28.1798026 14.0322362,29.1223608 C13.6587556,31.534592 13.312668,32.6705808 11.7606186,32.6705808 C11.3082995,32.6705808 9.81437684,31.9945711 8.08594308,29.9040593 C5.16891882,26.3724571 3.3275723,21.0654156 2.2973269,17.2326999 C0.79405054,11.6438215 1.0679809,7.20289651 3.08905245,4.39183955 C4.90634654,1.865943 7.49866312,1.42922878 8.5255679,1.35943428 C10.7377226,1.20987461 11.9329943,1.62531812 13.2024277,2.06336176 C14.264743,2.43094618 15.3631369,2.81182479 17.000706,2.81182479 C18.638275,2.81182479 19.7393414,2.43094618 20.7983161,2.06336176 C22.0677495,1.62465341 23.261685,1.20987461 25.4751759,1.35943428 C26.5047532,1.42922878 29.0943973,1.86328416 30.9116914,4.39183955 C32.9320948,7.20289651 33.2060252,11.6438215 31.7027488,17.2326999 Z" id="Shape-Copy-5"></path>
                <g id="Group" transform="translate(12.000000, 8.000000)">
                    <g id="wifi-outline" transform="translate(4.476367, 8.576923) scale(1, -1) translate(-4.476367, -8.576923) translate(3.230769, 5.384615)">
                        <path d="M1.24559779,4.5969228 C0.81862187,4.59691181 0.408276643,4.76118624 0.100853983,5.05520065 C-0.0303280551,5.18084666 -0.0340205569,5.38822298 0.0926065493,5.51838863 C0.219233656,5.64855428 0.428229261,5.65221817 0.559411299,5.52657216 C0.947762881,5.17372586 1.54343269,5.17372586 1.93178427,5.52657216 C2.06296631,5.65221817 2.27196192,5.64855428 2.39858902,5.51838863 C2.52521613,5.38822298 2.52152363,5.18084666 2.39034159,5.05520065 C2.08291893,4.76118624 1.6725737,4.59691181 1.24559779,4.5969228 L1.24559779,4.5969228 Z" id="Path"></path>
                        <path d="M1.24559779,3.3199998 C0.81862187,3.31998881 0.408276643,3.48426324 0.100853983,3.77827765 C-0.0303280551,3.90392366 -0.0340205569,4.11129998 0.0926065493,4.24146563 C0.219233656,4.37163128 0.428229261,4.37529517 0.559411299,4.24964916 C0.947762881,3.89680286 1.54343269,3.89680286 1.93178427,4.24964916 C2.06296631,4.37529517 2.27196192,4.37163128 2.39858902,4.24146563 C2.52521613,4.11129998 2.52152363,3.90392366 2.39034159,3.77827765 C2.08291893,3.48426324 1.6725737,3.31998881 1.24559779,3.3199998 L1.24559779,3.3199998 Z" id="Path-Copy-2"></path>
                        <path d="M1.24559779,2.0430768 C0.81862187,2.04306581 0.408276643,2.20734024 0.100853983,2.50135465 C-0.0303280551,2.62700066 -0.0340205569,2.83437698 0.0926065493,2.96454263 C0.219233656,3.09470828 0.428229261,3.09837217 0.559411299,2.97272616 C0.947762881,2.61987986 1.54343269,2.61987986 1.93178427,2.97272616 C2.06296631,3.09837217 2.27196192,3.09470828 2.39858902,2.96454263 C2.52521613,2.83437698 2.52152363,2.62700066 2.39034159,2.50135465 C2.08291893,2.20734024 1.6725737,2.04306581 1.24559779,2.0430768 L1.24559779,2.0430768 Z" id="Path-Copy-3"></path>
                        <path d="M1.24559779,0.7661538 C0.81862187,0.766142811 0.408276643,0.930417236 0.100853983,1.22443165 C-0.0303280551,1.35007766 -0.0340205569,1.55745398 0.0926065493,1.68761963 C0.219233656,1.81778528 0.428229261,1.82144917 0.559411299,1.69580316 C0.947762881,1.34295686 1.54343269,1.34295686 1.93178427,1.69580316 C2.06296631,1.82144917 2.27196192,1.81778528 2.39858902,1.68761963 C2.52521613,1.55745398 2.52152363,1.35007766 2.39034159,1.22443165 C2.08291893,0.930417236 1.6725737,0.766142811 1.24559779,0.7661538 L1.24559779,0.7661538 Z" id="Path-Copy-4"></path>
                    </g>
                    <g id="thermometer-outline" transform="translate(4.500000, 7.500000) scale(1, -1) translate(-4.500000, -7.500000) ">
                        <path d="M1.04359245,13.5875938 C0.537040319,12.0679374 1.05974005,10.3946369 2.34122685,9.43352178 L2.34122685,3.47907816 C2.34122685,2.65694106 3.0855323,1.79011198 4.57414321,0.878590906 C6.06275411,1.79011198 6.80705956,2.65694106 6.80705956,3.47907816 L6.80705956,9.43352178 C8.08854636,10.3946369 8.61124609,12.0679374 8.10469396,13.5875938 C7.59814183,15.1072502 6.1760017,14.825997 4.57414321,14.825997 C2.97228471,14.825997 1.55014459,15.1072502 1.04359245,13.5875938 Z M4.57414321,2.36720181 C4.07793957,2.83440701 3.82983775,3.20503246 3.82983775,3.47907816 L3.82983775,9.83544672 C3.83089765,10.1024177 3.68889175,10.349508 3.45768503,10.4829925 C2.76867472,10.8807889 2.34337033,11.6151478 2.34122685,12.4107436 C2.34122685,13.6439492 3.34093756,13.4351826 4.57414321,13.4351826 C5.80734886,13.4351826 6.80705956,13.6439492 6.80705956,12.4107436 C6.80491609,11.6151478 6.37961169,10.8807889 5.69060138,10.4829925 C5.45939466,10.349508 5.31738876,10.1024177 5.31844866,9.83544672 L5.31844866,3.47907816 C5.32160182,3.28521284 5.24330151,3.0989121 5.10260008,2.9655074 C5.01060428,2.8689781 4.83445199,2.6695429 4.57414321,2.36720181 Z" id="Shape"></path>
                    </g>
                </g>
            </g>
        </g>
    </g>
</svg>