<?xml version="1.0" encoding="UTF-8"?>
<svg width="34px" height="34px" viewBox="0 0 34 34" version="1.1" xmlns="http://www.w3.org/2000/svg" xmlns:xlink="http://www.w3.org/1999/xlink">
    <!-- Generator: Sketch 55.2 (78181) - https://sketchapp.com -->
    <title>Ortodoncia</title>
    <desc>Created with Sketch.</desc>
    <g id="Page-1" stroke="none" stroke-width="1" fill="none" fill-rule="evenodd">
        <g id="Artboard" transform="translate(-46.000000, -132.000000)" fill="#000000" fill-rule="nonzero">
            <g id="Ortodoncia" transform="translate(46.000000, 110.973136)">
                <path d="M33.9195803,30.1168711 C33.7044448,27.9598884 33.0577019,26.1186428 31.9980591,24.6443168 C29.8493761,21.6564471 26.7840285,21.1432913 25.5653725,21.0602026 C23.0799556,20.892031 21.6341378,21.3925574 20.3586913,21.8345893 C19.3565071,22.1815677 18.4111133,22.5092695 17.0000379,22.5092695 C15.5889624,22.5092695 14.6429005,22.1815677 13.6413844,21.8345893 C12.3659379,21.3932221 10.9201201,20.892031 8.4347032,21.0602026 C7.21604716,21.1432913 4.15069963,21.6564471 2.00201661,24.6449815 C0.942373807,26.1193075 0.296967156,27.9605531 0.0804953596,30.1168711 C-0.163369473,32.5556907 0.147307642,35.4106185 1.0065136,38.6025541 C2.55455419,44.3629276 4.58965632,48.7952113 7.05502956,51.7757692 C9.03935436,54.175371 10.8305917,55.026864 11.7612868,55.026864 C13.0434145,55.026864 13.9861358,54.4685079 14.5633939,53.3650899 C15.021058,52.4903321 15.1900931,51.4022024 15.3531151,50.3499671 C15.679159,48.2441671 15.9330457,47.3208854 17.0000379,47.3208854 C18.06703,47.3208854 18.3209167,48.2441671 18.6469606,50.3499671 C18.8099826,51.4022024 18.981022,52.4903321 19.4366818,53.3650899 C20.0139399,54.4665138 20.9566612,55.026864 22.2387889,55.026864 C23.169484,55.026864 24.9607213,54.175371 26.9450461,51.7757692 C29.4104194,48.7945466 31.4455215,44.3629276 32.9935621,38.6032188 C33.8520999,35.4112832 34.1634452,32.5563554 33.9195803,30.1168711 Z M31.7027488,38.2595639 C29.8360136,45.2057794 27.5243086,48.9833241 25.9134645,50.9309233 C24.1850307,53.0214351 22.6911081,53.6974447 22.2387889,53.6974447 C20.6874077,53.6974447 20.3413201,52.561456 19.9671713,50.1492248 C19.8215206,49.2086607 19.6705248,48.2361905 19.3057297,47.4784216 C18.8306944,46.4939866 18.0550038,45.994125 17.0000379,45.9934603 C15.9450719,45.9934603 15.1687132,46.4933219 14.6936778,47.4784216 C14.3288828,48.2361905 14.177887,49.2066666 14.0322362,50.1492248 C13.6587556,52.561456 13.312668,53.6974447 11.7606186,53.6974447 C11.3082995,53.6974447 9.81437684,53.0214351 8.08594308,50.9309233 C5.16891882,47.3993211 3.3275723,42.0922796 2.2973269,38.2595639 C0.79405054,32.6706854 1.0679809,28.2297605 3.08905245,25.4187035 C4.90634654,22.892807 7.49866312,22.4560928 8.5255679,22.3862983 C10.7377226,22.2367386 11.9329943,22.6521821 13.2024277,23.0902257 C14.264743,23.4578102 15.3631369,23.8386888 17.000706,23.8386888 C18.638275,23.8386888 19.7393414,23.4578102 20.7983161,23.0902257 C22.0677495,22.6515174 23.261685,22.2367386 25.4751759,22.3862983 C26.5047532,22.4560928 29.0943973,22.8901481 30.9116914,25.4187035 C32.9320948,28.2297605 33.2060252,32.6706854 31.7027488,38.2595639 Z" id="Shape-Copy-2"></path>
                <polygon id="Rectangle" opacity="0" transform="translate(16.789564, 37.707601) rotate(-1.000000) translate(-16.789564, -37.707601) " points="11.2895639 32.2076012 22.2895639 32.2076012 22.2895639 43.2076012 11.2895639 43.2076012"></polygon>
                <path d="M20.4863855,28.959552 L13.6113855,28.959552 C12.4722982,28.959552 11.5488855,29.8829647 11.5488855,31.022052 L11.5488855,40.647052 C11.5488855,41.7861393 12.4722982,42.709552 13.6113855,42.709552 L20.4863855,42.709552 C21.6254728,42.709552 22.5488855,41.7861393 22.5488855,40.647052 L22.5488855,31.022052 C22.5488855,29.8829647 21.6254728,28.959552 20.4863855,28.959552 Z M21.1738855,40.647052 C21.1738855,41.0267478 20.8660812,41.334552 20.4863855,41.334552 L13.6113855,41.334552 C13.2316897,41.334552 12.9238855,41.0267478 12.9238855,40.647052 L12.9238855,31.022052 C12.9238855,30.6423562 13.2316897,30.334552 13.6113855,30.334552 L20.4863855,30.334552 C20.8660812,30.334552 21.1738855,30.6423562 21.1738855,31.022052 L21.1738855,40.647052 Z" id="Shape" transform="translate(17.048885, 35.834552) rotate(-90.000000) translate(-17.048885, -35.834552) "></path>
                <path d="M16.8066457,35.166554 L13.2352172,35.166554 C12.8407281,35.166554 12.5209315,35.4357162 12.5209315,35.7677445 C12.5209315,36.0997728 12.8407281,36.3689349 13.2352172,36.3689349 L16.8066457,36.3689349 C17.2011349,36.3689349 17.5209315,36.0997728 17.5209315,35.7677445 C17.5209315,35.4357162 17.2011349,35.166554 16.8066457,35.166554 Z" id="Path" transform="translate(15.020931, 35.767744) rotate(-90.000000) translate(-15.020931, -35.767744) "></path>
                <path d="M20.8066457,35.166554 L17.2352172,35.166554 C16.8407281,35.166554 16.5209315,35.4357162 16.5209315,35.7677445 C16.5209315,36.0997728 16.8407281,36.3689349 17.2352172,36.3689349 L20.8066457,36.3689349 C21.2011349,36.3689349 21.5209315,36.0997728 21.5209315,35.7677445 C21.5209315,35.4357162 21.2011349,35.166554 20.8066457,35.166554 Z" id="Path-Copy" transform="translate(19.020931, 35.767744) rotate(-90.000000) translate(-19.020931, -35.767744) "></path>
                <g id="minus-outline" transform="translate(4.078307, 0.000000)">
                    <rect id="Rectangle" opacity="0" transform="translate(24.000000, 12.000000) rotate(180.000000) translate(-24.000000, -12.000000) " x="12" y="0" width="24" height="24"></rect>
                    <path d="M23.6487565,36.3326012 C23.0734599,36.3326012 15.7817933,36.3326012 1.77375654,36.3326012 C0.910811614,36.3326012 0.768761366,36.0807614 0.768761366,35.7701012 C0.768761366,35.459441 0.910811614,35.2076012 1.77375654,35.2076012 L23.6487565,35.2076012 C24.5117015,35.2076012 24.7846612,35.459441 24.7846612,35.7701012 C24.7846612,36.0807614 24.5117015,36.3326012 23.6487565,36.3326012 Z" id="Path"></path>
                </g>
            </g>
        </g>
    </g>
</svg>