<?xml version="1.0" encoding="UTF-8"?>
<svg width="34px" height="34px" viewBox="0 0 34 34" version="1.1" xmlns="http://www.w3.org/2000/svg" xmlns:xlink="http://www.w3.org/1999/xlink">
    <!-- Generator: Sketch 55.2 (78181) - https://sketchapp.com -->
    <title>Perodoncia</title>
    <desc>Created with Sketch.</desc>
    <g id="Page-1" stroke="none" stroke-width="1" fill="none" fill-rule="evenodd">
        <g id="Artboard" transform="translate(-368.000000, -11.000000)" fill="#000000" fill-rule="nonzero">
            <g id="Perodoncia" transform="translate(367.256901, 10.028813)">
                <path d="M34.662679,10.0611941 C34.4475434,7.90421139 33.8008005,6.06296575 32.7411577,4.58863982 C30.5924747,1.60077009 27.5271272,1.08761427 26.3084712,1.00452557 C23.8230542,0.836354033 22.3772364,1.33688037 21.10179,1.77891227 C20.0996057,2.12589069 19.1542119,2.45359253 17.7431365,2.45359253 C16.3320611,2.45359253 15.3859992,2.12589069 14.384483,1.77891227 C13.1090366,1.33754508 11.6632188,0.836354033 9.17780185,1.00452557 C7.95914581,1.08761427 4.89379828,1.60077009 2.74511526,4.58930453 C1.68547246,6.06363046 1.04006581,7.9048761 0.823594011,10.0611941 C0.579729178,12.5000137 0.890406293,15.3549415 1.74961225,18.5468771 C3.29765284,24.3072506 5.33275498,28.7395343 7.79812821,31.7200922 C9.78245301,34.119694 11.5736903,34.971187 12.5043854,34.971187 C13.7865131,34.971187 14.7292344,34.4128309 15.3064925,33.3094129 C15.7641567,32.4346551 15.9331918,31.3465254 16.0962137,30.2942901 C16.4222577,28.18849 16.6761443,27.2652084 17.7431365,27.2652084 C18.8101287,27.2652084 19.0640153,28.18849 19.3900593,30.2942901 C19.5530812,31.3465254 19.7241207,32.4346551 20.1797805,33.3094129 C20.7570386,34.4108368 21.6997599,34.971187 22.9818876,34.971187 C23.9125827,34.971187 25.70382,34.119694 27.6881448,31.7200922 C30.153518,28.7388696 32.1886202,24.3072506 33.7366608,18.5475418 C34.5951986,15.3556062 34.9065438,12.5006784 34.662679,10.0611941 Z M32.4458474,18.2038869 C30.5791123,25.1501024 28.2674073,28.9276471 26.6565631,30.8752463 C24.9281294,32.9657581 23.4342067,33.6417677 22.9818876,33.6417677 C21.4305064,33.6417677 21.0844188,32.505779 20.71027,30.0935478 C20.5646192,29.1529837 20.4136234,28.1805135 20.0488284,27.4227446 C19.573793,26.4383096 18.7981024,25.938448 17.7431365,25.9377833 C16.6881706,25.9377833 15.9118118,26.4376449 15.4367765,27.4227446 C15.0719814,28.1805135 14.9209857,29.1509896 14.7753349,30.0935478 C14.4018542,32.505779 14.0557666,33.6417677 12.5037173,33.6417677 C12.0513981,33.6417677 10.5574755,32.9657581 8.82904173,30.8752463 C5.91201747,27.3436441 4.07067095,22.0366025 3.04042555,18.2038869 C1.53714919,12.6150084 1.81107955,8.17408349 3.8321511,5.36302652 C5.6494452,2.83712998 8.24176177,2.40041576 9.26866655,2.33062125 C11.4808212,2.18106159 12.676093,2.5965051 13.9455263,3.03454874 C15.0078416,3.40213315 16.1062356,3.78301176 17.7438046,3.78301176 C19.3813737,3.78301176 20.4824401,3.40213315 21.5414148,3.03454874 C22.8108481,2.59584039 24.0047836,2.18106159 26.2182746,2.33062125 C27.2478518,2.40041576 29.8374959,2.83447114 31.65479,5.36302652 C33.6751935,8.17408349 33.9491238,12.6150084 32.4458474,18.2038869 Z" id="Shape-Copy-3"></path>
                <path d="M14.3519381,19.5469836 L12.1739873,21.7249345 C11.9334175,21.9655043 11.9435748,22.3657023 12.1966743,22.6188017 C12.4497737,22.8719012 12.8499717,22.8820585 13.0905415,22.6414887 L15.2684924,20.4635379 C15.5090622,20.2229681 15.4989049,19.8227701 15.2458054,19.5696706 C14.9927059,19.3165711 14.5925079,19.3064138 14.3519381,19.5469836 Z M23.2607044,9.42330631 C22.7240544,8.879654 21.8538809,8.8567547 21.2893801,9.37142935 L19.8071813,10.8536281 L18.8511631,9.93466488 C18.6631769,9.74667867 18.3891811,9.6732617 18.1323871,9.74206943 C17.8755932,9.81087716 17.6750143,10.011456 17.6062066,10.26825 C17.5373989,10.5250439 17.6108158,10.7990398 17.798802,10.987026 L18.7177653,11.9430442 L14.6194857,16.0413237 C14.379937,16.2828963 14.2307825,16.5995224 14.1970591,16.938054 L13.8783863,20.0284384 C13.8649112,20.1749511 13.9365508,20.3725776 14.0933052,20.6213179 C14.3127679,20.7653563 14.4881614,20.8370039 14.6194857,20.8362607 L14.6861847,20.8362607 L17.7765691,20.5546189 C18.1151006,20.5208955 18.4317268,20.371741 18.6732993,20.1321923 L22.8086338,15.9968578 L23.727597,16.915821 C23.8667507,17.0561205 24.0561727,17.1350369 24.2537776,17.1350369 C24.4513825,17.1350369 24.6408044,17.0561205 24.7799581,16.915821 C24.9202576,16.7766673 24.9991741,16.5872453 24.9991741,16.3896404 C24.9991741,16.1920355 24.9202576,16.0026136 24.7799581,15.8634599 L23.8609949,14.9444966 L25.3431937,13.4622979 C25.8821878,12.8928829 25.8589888,11.9947481 25.2913167,11.4539186 L23.2607044,9.42330631 Z M17.6431712,19.0724202 L15.419873,19.279928 L15.6199699,17.0566299 L19.8071813,12.9509393 L21.8007387,14.9519076 L17.6431712,19.0724202 Z M22.8308668,13.8847245 L20.8150765,11.9430442 L22.2305763,10.4608454 L24.2537776,12.4840467 L22.8308668,13.8847245 Z" id="Shape"></path>
            </g>
        </g>
    </g>
</svg>