<?xml version="1.0" encoding="UTF-8"?>
<svg width="34px" height="34px" viewBox="0 0 34 34" version="1.1" xmlns="http://www.w3.org/2000/svg" xmlns:xlink="http://www.w3.org/1999/xlink">
    <!-- Generator: Sketch 55.2 (78181) - https://sketchapp.com -->
    <title>Radiodiagnostico</title>
    <desc>Created with Sketch.</desc>
    <g id="Page-1" stroke="none" stroke-width="1" fill="none" fill-rule="evenodd">
        <g id="Artboard" transform="translate(-381.000000, -132.000000)" fill="#000000" fill-rule="nonzero">
            <g id="Radiodiagnostico" transform="translate(381.000000, 132.000000)">
                <path d="M33.9195803,9.09000712 C33.7044448,6.93302441 33.0577019,5.09177877 31.9980591,3.61745284 C29.8493761,0.629583116 26.7840285,0.116427292 25.5653725,0.0333385899 C23.0799556,-0.134832943 21.6341378,0.365693398 20.3586913,0.807725293 C19.3565071,1.15470371 18.4111133,1.48240555 17.0000379,1.48240555 C15.5889624,1.48240555 14.6429005,1.15470371 13.6413844,0.807725293 C12.3659379,0.366358108 10.9201201,-0.134832943 8.4347032,0.0333385899 C7.21604716,0.116427292 4.15069963,0.629583116 2.00201661,3.61811755 C0.942373807,5.09244348 0.296967156,6.93368912 0.0804953596,9.09000712 C-0.163369473,11.5288267 0.147307642,14.3837545 1.0065136,17.5756901 C2.55455419,23.3360636 4.58965632,27.7683473 7.05502956,30.7489053 C9.03935436,33.148507 10.8305917,34 11.7612868,34 C13.0434145,34 13.9861358,33.4416439 14.5633939,32.338226 C15.021058,31.4634681 15.1900931,30.3753385 15.3531151,29.3231031 C15.679159,27.2173031 15.9330457,26.2940214 17.0000379,26.2940214 C18.06703,26.2940214 18.3209167,27.2173031 18.6469606,29.3231031 C18.8099826,30.3753385 18.981022,31.4634681 19.4366818,32.338226 C20.0139399,33.4396498 20.9566612,34 22.2387889,34 C23.169484,34 24.9607213,33.148507 26.9450461,30.7489053 C29.4104194,27.7676826 31.4455215,23.3360636 32.9935621,17.5763548 C33.8520999,14.3844192 34.1634452,11.5294914 33.9195803,9.09000712 Z M31.7027488,17.2326999 C29.8360136,24.1789154 27.5243086,27.9564602 25.9134645,29.9040593 C24.1850307,31.9945711 22.6911081,32.6705808 22.2387889,32.6705808 C20.6874077,32.6705808 20.3413201,31.534592 19.9671713,29.1223608 C19.8215206,28.1817967 19.6705248,27.2093266 19.3057297,26.4515576 C18.8306944,25.4671227 18.0550038,24.967261 17.0000379,24.9665963 C15.9450719,24.9665963 15.1687132,25.4664579 14.6936778,26.4515576 C14.3288828,27.2093266 14.177887,28.1798026 14.0322362,29.1223608 C13.6587556,31.534592 13.312668,32.6705808 11.7606186,32.6705808 C11.3082995,32.6705808 9.81437684,31.9945711 8.08594308,29.9040593 C5.16891882,26.3724571 3.3275723,21.0654156 2.2973269,17.2326999 C0.79405054,11.6438215 1.0679809,7.20289651 3.08905245,4.39183955 C4.90634654,1.865943 7.49866312,1.42922878 8.5255679,1.35943428 C10.7377226,1.20987461 11.9329943,1.62531812 13.2024277,2.06336176 C14.264743,2.43094618 15.3631369,2.81182479 17.000706,2.81182479 C18.638275,2.81182479 19.7393414,2.43094618 20.7983161,2.06336176 C22.0677495,1.62465341 23.261685,1.20987461 25.4751759,1.35943428 C26.5047532,1.42922878 29.0943973,1.86328416 30.9116914,4.39183955 C32.9320948,7.20289651 33.2060252,11.6438215 31.7027488,17.2326999 Z" id="Shape-Copy-7"></path>
                <g id="film-outline" transform="translate(9.000000, 6.000000)">
                    <rect id="Rectangle" opacity="0" x="0" y="0" width="15" height="15"></rect>
                    <path d="M12.9157268,1.30769231 L3.39196586,1.30769231 C2.24085336,1.30769231 1.30769231,2.24085336 1.30769231,3.39196586 L1.30769231,12.9157268 C1.30769231,14.0668393 2.24085336,15.0000003 3.39196586,15.0000003 L12.9157268,15.0000003 C13.4685105,15.0000003 13.9986536,14.7804078 14.3895307,14.3895307 C14.7804078,13.9986536 15.0000003,13.4685105 15.0000003,12.9157268 L15.0000003,3.39196586 C15.0000003,2.83918214 14.7804078,2.30903901 14.3895307,1.9181619 C13.9986536,1.52728478 13.4685105,1.30769231 12.9157268,1.30769231 Z M4.35042742,7.39316253 L2.82905986,7.39316253 L2.82905986,5.87179497 L4.35042742,5.87179497 L4.35042742,7.39316253 Z M2.82905986,8.91453009 L4.35042742,8.91453009 L4.35042742,10.4358976 L2.82905986,10.4358976 L2.82905986,8.91453009 Z M5.87179497,2.82905986 L10.4358976,2.82905986 L10.4358976,13.4786328 L5.87179497,13.4786328 L5.87179497,2.82905986 Z M13.4786328,7.39316253 L11.9572652,7.39316253 L11.9572652,5.87179497 L13.4786328,5.87179497 L13.4786328,7.39316253 Z M11.9572652,8.91453009 L13.4786328,8.91453009 L13.4786328,10.4358976 L11.9572652,10.4358976 L11.9572652,8.91453009 Z M13.4786328,3.39196586 L13.4786328,4.35042742 L11.9572652,4.35042742 L11.9572652,2.82905986 L12.9157268,2.82905986 C13.0650187,2.82905986 13.2081961,2.88836586 13.3137614,2.99393121 C13.4193268,3.09949656 13.4786328,3.24267391 13.4786328,3.39196586 Z M3.39196586,2.82905986 L4.35042742,2.82905986 L4.35042742,4.35042742 L2.82905986,4.35042742 L2.82905986,3.39196586 C2.82905986,3.24267391 2.88836586,3.09949656 2.99393121,2.99393121 C3.09949656,2.88836586 3.24267391,2.82905986 3.39196586,2.82905986 L3.39196586,2.82905986 Z M2.82905986,12.9157268 L2.82905986,11.9572652 L4.35042742,11.9572652 L4.35042742,13.4786328 L3.39196586,13.4786328 C3.24267391,13.4786328 3.09949656,13.4193268 2.99393121,13.3137614 C2.88836586,13.2081961 2.82905986,13.0650187 2.82905986,12.9157268 L2.82905986,12.9157268 Z M13.4786328,12.9157268 C13.4786328,13.2266112 13.2266112,13.4786328 12.9157268,13.4786328 L11.9572652,13.4786328 L11.9572652,11.9572652 L13.4786328,11.9572652 L13.4786328,12.9157268 Z" id="Shape"></path>
                </g>
            </g>
        </g>
    </g>
</svg>