<?xml version="1.0" encoding="utf-8"?>
<!-- Svg Vector Icons : http://www.onlinewebfonts.com/icon -->
<!DOCTYPE svg PUBLIC "-//W3C//DTD SVG 1.1//EN" "http://www.w3.org/Graphics/SVG/1.1/DTD/svg11.dtd">
<svg version="1.1" xmlns="http://www.w3.org/2000/svg" xmlns:xlink="http://www.w3.org/1999/xlink" x="0px" y="0px" viewBox="0 0 1000 1000" enable-background="new 0 0 1000 1000" xml:space="preserve">
<metadata> Svg Vector Icons : http://www.onlinewebfonts.com/icon </metadata>
<g><path d="M983.8,250.7c-8.3-8.3-21.8-8.3-30.1,0L500,704.3L46.4,250.7c-8.3-8.3-21.8-8.3-30.1,0c-8.3,8.3-8.3,21.8,0,30.1l468.6,468.6c4.2,4.2,9.6,6.2,15.1,6.2c0,0,0.1,0,0.1,0c0,0,0.1,0,0.1,0c5.5,0,10.9-2.1,15.1-6.2l468.6-468.6C992.1,272.5,992.1,259,983.8,250.7z"/></g>
</svg>