<?xml version="1.0" encoding="UTF-8"?>
<svg id="logo" viewBox="0 0 332 255" version="1.1" xmlns="http://www.w3.org/2000/svg" xmlns:xlink="http://www.w3.org/1999/xlink" class="hola" width="75px" height="85px" fill="white" style="animation: 1s ease 0s 1 normal forwards running color_change_logo2;">
<g>
<path fill="black" d="M57.724719,244.714286 L77.824719,249.714286 C77.724719,249.514286 77.724719,249.214286 77.624719,249.014286 C77.224719,248.014286 77.024719,246.714286 76.824719,245.314286 C76.624719,243.914286 76.524719,242.514286 76.524719,240.914286 C76.524719,234.714286 78.124719,229.714286 81.124719,226.314286 C84.324719,222.714286 89.824719,221.014286 98.024719,221.014286 L127.624719,221.014286 C134.024719,221.014286 139.524719,220.214286 144.024719,218.614286 C148.524719,217.114286 152.224719,215.014286 155.124719,212.614286 C158.024719,210.114286 160.324719,207.414286 162.024719,204.614286 C163.724719,201.714286 165.124719,198.814286 166.124719,196.014286 L166.524719,194.914286 L169.424719,194.914286 L169.824719,196.014286 C170.824719,198.814286 172.224719,201.714286 174.024719,204.614286 C175.824719,207.514286 178.224719,210.214286 181.124719,212.614286 C184.024719,215.114286 187.724719,217.114286 192.024719,218.714286 C196.424719,220.314286 201.924719,221.014286 208.324719,221.014286 L239.924719,221.014286 C248.124719,221.014286 253.724719,222.714286 256.824719,226.314286 C259.924719,229.814286 261.424719,234.714286 261.424719,240.914286 C261.424719,244.214286 261.124719,246.814286 260.624719,248.914286 C260.624719,249.114286 260.524719,249.414286 260.524719,249.714286 L280.624719,244.714286 C280.824719,243.914286 281.024719,243.114286 281.124719,242.214286 C281.324719,241.114286 281.424719,239.814286 281.524719,238.214286 C281.624719,236.614286 281.624719,234.814286 281.624719,232.914286 C281.624719,227.714286 280.924719,223.014286 279.524719,218.714286 C278.124719,214.614286 276.024719,211.014286 273.024719,208.014286 C270.024719,205.014286 266.224719,202.614286 261.524719,200.914286 C256.824719,199.214286 250.924719,198.314286 244.024719,198.314286 L211.224719,198.314286 C205.224719,198.314286 200.224719,197.614286 196.224719,196.314286 C192.224719,194.914286 188.824719,193.014286 186.324719,190.514286 C183.824719,188.114286 181.824719,185.214286 180.324719,182.014286 C179.124719,179.314286 178.024719,176.314286 177.024719,173.114286 L158.724719,173.114286 C157.724719,176.314286 156.624719,179.314286 155.424719,182.014286 C154.024719,185.214286 152.024719,188.014286 149.424719,190.514286 C146.924719,192.914286 143.524719,194.914286 139.524719,196.314286 C135.524719,197.714286 130.524719,198.314286 124.624719,198.314286 L94.024719,198.314286 C87.124719,198.314286 81.224719,199.214286 76.524719,200.914286 C71.824719,202.614286 68.024719,205.014286 65.024719,208.014286 C62.124719,211.014286 59.924719,214.614286 58.524719,218.714286 C57.124719,222.914286 56.424719,227.714286 56.424719,232.914286 C56.424719,234.814286 56.524719,236.514286 56.624719,238.114286 C56.824719,239.714286 56.924719,241.114286 57.124719,242.214286 C57.324719,242.914286 57.524719,243.814286 57.724719,244.714286 Z M255.624719,254.214286 L256.424719,251.414286 C256.724719,250.314286 257.024719,249.314286 257.124719,248.214286 C257.624719,246.214286 257.824719,243.814286 257.824719,240.914286 C257.824719,235.514286 256.524719,231.314286 254.024719,228.414286 C251.524719,225.614286 246.724719,224.214286 239.624719,224.214286 L208.124719,224.214286 C201.324719,224.214286 195.524719,223.314286 190.724719,221.714286 C185.924719,220.014286 181.924719,217.814286 178.724719,215.014286 C175.524719,212.314286 172.924719,209.314286 171.024719,206.214286 C169.824719,204.214286 168.724719,202.314286 167.824719,200.314286 C166.924719,202.214286 165.924719,204.214286 164.824719,206.214286 C162.924719,209.414286 160.424719,212.314286 157.224719,215.014286 C154.024719,217.714286 149.924719,220.014286 145.124719,221.714286 C140.324719,223.414286 134.424719,224.214286 127.624719,224.214286 L98.024719,224.214286 C90.924719,224.214286 86.024719,225.614286 83.624719,228.414286 C81.124719,231.314286 79.824719,235.514286 79.824719,240.914286 C79.824719,242.314286 79.924719,243.614286 80.024719,244.814286 C80.224719,246.014286 80.424719,247.014286 80.724719,247.914286 C81.124719,249.214286 81.424719,250.414286 81.524719,251.614286 L81.924719,254.014286 L54.724719,247.314286 L54.524719,246.214286 C54.324719,245.114286 54.124719,244.014286 53.824719,242.714286 C53.624719,241.414286 53.424719,240.014286 53.224719,238.314286 C53.024719,236.614286 52.924719,234.714286 52.924719,232.814286 C52.924719,227.314286 53.724719,222.214286 55.124719,217.614286 C56.624719,213.014286 59.124719,208.914286 62.424719,205.614286 C65.724719,202.314286 70.024719,199.614286 75.124719,197.714286 C80.224719,195.814286 86.524719,194.914286 93.824719,194.914286 L124.424719,194.914286 C130.024719,194.914286 134.624719,194.314286 138.324719,193.014286 C141.924719,191.814286 144.824719,190.114286 147.024719,188.014286 C149.224719,185.914286 151.024719,183.414286 152.224719,180.614286 C153.524719,177.714286 154.724719,174.414286 155.724719,170.914286 L156.024719,169.714286 L179.424719,169.714286 L179.724719,170.914286 C180.724719,174.414286 181.924719,177.614286 183.224719,180.614286 C184.524719,183.414286 186.224719,185.914286 188.424719,188.014286 C190.624719,190.114286 193.524719,191.814286 197.124719,193.014286 C200.724719,194.214286 205.424719,194.914286 211.024719,194.914286 L243.624719,194.914286 C250.924719,194.914286 257.224719,195.814286 262.324719,197.714286 C267.424719,199.614286 271.724719,202.214286 275.024719,205.614286 C278.324719,209.014286 280.824719,213.014286 282.324719,217.614286 C283.824719,222.214286 284.524719,227.314286 284.524719,232.814286 C284.524719,234.814286 284.524719,236.614286 284.424719,238.314286 C284.324719,240.014286 284.224719,241.414286 284.024719,242.614286 C283.824719,244.014286 283.524719,245.314286 283.224719,246.514286 L282.924719,247.414286 L255.624719,254.214286 Z M4.8,168.6 L8.6,190.8 L125.2,167 L130.6,145.3 L38.8,70.1 L25.1,87.4 L104.4,150.3 L4.8,168.6 Z M5.9,194.8 L0.9,165.8 L96.5,148.3 L20.4,88 L38.4,65.3 L134.5,144 L128,169.9 L127,170.1 L5.9,194.8 Z M173.765169,121.5 L193.665169,131 L283.765169,56.4 L269.665169,39.7 L193.765169,104.5 L195.165169,4 L173.065169,3.5 L173.765169,121.5 Z M194.165169,135 L170.365169,123.7 L169.665169,0.1 L198.565169,0.8 L197.265169,97.2 L270.065169,35 L288.565169,56.9 L194.165169,135 Z M46.5,57.6 L136.2,131.7 L156.1,122.4 L157.1,5.8 L135.4,6 L136.2,105.5 L61,40.9 L46.5,57.6 Z M135.7,135.6 L41.7,58 L60.7,36.2 L132.8,98.2 L132.1,2.7 L160.5,2.3 L159.5,124.4 L135.7,135.6 Z M206.7,166.8 L323.1,190.8 L327.1,169.1 L227.6,150.2 L307.2,87.9 L293.4,70.1 L201.4,145.1 L206.7,166.8 Z M325.8,194.8 L203.9,169.7 L197.5,143.8 L293.9,65.3 L311.9,88.6 L235.5,148.3 L331.1,166.5 L325.8,194.8 Z"></path>
</g>
</svg>