<?xml version="1.0" encoding="UTF-8"?>
<svg width="42px" height="43px" viewBox="0 0 42 43" version="1.1" xmlns="http://www.w3.org/2000/svg" xmlns:xlink="http://www.w3.org/1999/xlink">
    <!-- Generator: Sketch 53.2 (72643) - https://sketchapp.com -->
    <title>Icon</title>
    <desc>Created with Sketch.</desc>
    <g id="Page-1" stroke="none" stroke-width="1" fill="none" fill-rule="evenodd">
        <g id="00-PC-–-Home-COOKIES" transform="translate(-73.000000, -771.000000)" stroke="#1D1D1B" stroke-width="2">
            <g id="cookies" transform="translate(53.000000, 734.000000)">
                <g id="Icon" transform="translate(21.000000, 38.000000)">
                    <path d="M6.12974392,24 C6.1435478,23.5474916 6.15337429,23.1634609 6.15384222,22.8645647 C6.15828753,19.4628858 2.39825078,17.3386873 2.05128205,10" id="Stroke-1"></path>
                    <path d="M34.8717949,40.0187758 C34.1922233,40.6544684 33.3537415,41.0169963 32.3193672,40.9993443 C25.6814416,40.884827 27.4258695,26 21.9597117,26 C16.4933297,26 18.2377576,40.884827 11.599832,40.9993443 C6.84148647,41.0814261 6.15788055,33.4392141 6.15384615,27.851474" id="Stroke-3"></path>
                    <path d="M37.8841775,23 C37.8987247,25.3798557 38.8097436,32.6442373 37.4358974,37" id="Stroke-5"></path>
                    <path d="M39.8355795,7 C39.9626541,7.81587953 40.0195952,8.68082978 39.9939999,9.57231612 C39.9034579,12.7309535 39.2601922,15.4942874 38.974359,19" id="Stroke-7"></path>
                    <path d="M24.6153846,2 C24.9006806,1.91434879 25.1821499,1.80976658 25.458517,1.68625337 C27.7810641,0.648280724 30.4344013,-0.362911493 32.8205128,0.127447472" id="Stroke-9"></path>
                    <path d="M6.15384615,1.95056542 C7.43430939,1.53083169 8.90863673,1.35315177 10.4259434,1.10147197 C12.9918993,0.675521448 16.5310622,1.67221357 19.0284342,2.57384894 C19.4385665,2.72204924 20.0859994,2.91476979 20.5128205,3" id="Stroke-11"></path>
                    <path d="M32.3682827,7.44109845 C30.438914,5.55993421 30.225538,2.71847834 31.8914434,1.09419486 C33.5573488,-0.530088624 36.4720656,-0.322043685 38.400985,1.55890155 C40.3303537,3.43984679 40.5437297,6.28152166 38.8775997,7.90580514 C37.2116943,9.53008862 34.2974267,9.32204369 32.3682827,7.44109845 Z" id="Stroke-13"></path>
                    <path d="M0.463586006,3.87332755 C1.50892927,1.556828 3.98544976,0.407253869 5.99506285,1.30554811 C8.00488598,2.20384236 8.78684559,4.80987822 7.74150232,7.12658681 C6.69657913,9.44308636 4.22005864,10.5928695 2.21002548,9.69436624 C0.200412385,8.796072 -0.58175726,6.19003614 0.463586006,3.87332755 Z" id="Stroke-15"></path>
                    <path d="M5.35992734,25.2771216 C5.88252707,24.2473578 7.1209692,23.7364314 8.12568207,24.1359429 C9.13064333,24.5350148 9.52159959,25.6935541 8.99899987,26.7228784 C8.47640014,27.7526422 7.2382064,28.2635686 6.23324514,27.8640571 C5.22853226,27.4649852 4.83732762,26.3068854 5.35992734,25.2771216 Z" id="Stroke-17"></path>
                    <path d="M20.7445271,2.27718969 C21.2671069,1.2474516 22.5055017,0.73653802 23.5104245,1.13581973 C24.5153474,1.53510144 24.9062887,2.69339198 24.3834606,3.72291031 C23.8611292,4.7526484 22.6227344,5.26356198 21.6180599,4.86406052 C20.613137,4.46499856 20.2219474,3.30670802 20.7445271,2.27718969 Z" id="Stroke-19"></path>
                    <path d="M36.1291514,20.2771897 C36.6517511,19.2474516 37.8901932,18.736538 38.8951545,19.1358197 C39.8998673,19.5351014 40.2908236,20.693392 39.7682239,21.7229103 C39.2456241,22.7526484 38.0074304,23.263562 37.0027175,22.8640605 C35.9977563,22.4649986 35.6065516,21.306708 36.1291514,20.2771897 Z" id="Stroke-21"></path>
                    <path d="M19.7189462,15.2771216 C20.2415399,14.2473578 21.4797194,13.7364314 22.4846691,14.1359429 C23.4896188,14.5350148 23.8805706,15.6933343 23.3579769,16.7228784 C22.8353832,17.7526422 21.5972037,18.2635686 20.5922539,17.8640571 C19.5873042,17.4649852 19.1963525,16.3068854 19.7189462,15.2771216 Z" id="Stroke-23"></path>
                    <path d="M28.9496553,31.2770897 C29.4722351,30.2473516 30.7106299,29.736438 31.7155527,30.1359395 C32.7204756,30.5350014 33.1114169,31.6935117 32.5885888,32.7228103 C32.0662574,33.7525484 30.8278626,34.263462 29.8231881,33.8641803 C28.8182653,33.4648986 28.4270756,32.3068278 28.9496553,31.2770897 Z" id="Stroke-25"></path>
                    <path d="M34.0778693,38.2771983 C34.600469,37.2474533 35.8389112,36.7365362 36.8438724,37.1358206 C37.8485853,37.5351051 38.2395415,38.6934034 37.7169418,39.7229287 C37.1943421,40.752454 35.9561484,41.2635908 34.9514355,40.8640866 C33.9464742,40.465022 33.5552696,39.3067236 34.0778693,38.2771983 Z" id="Stroke-27"></path>
                    <path d="M8.66854943,13.5541 C9.71382335,11.4949529 12.1903074,10.4731445 14.2000611,11.2715719 C16.2098148,12.0699993 16.9917865,14.3865664 15.9469935,16.4459262 C14.9017195,18.5048605 12.4249951,19.5268816 10.4152413,18.7284542 C8.40548762,17.9298141 7.62351597,15.6134598 8.66854943,13.5541 Z" id="Stroke-29"></path>
                </g>
            </g>
        </g>
    </g>
</svg>