<?xml version="1.0" encoding="UTF-8"?>
<svg width="34px" height="34px" viewBox="0 0 34 34" version="1.1" xmlns="http://www.w3.org/2000/svg" xmlns:xlink="http://www.w3.org/1999/xlink">
    <!-- Generator: Sketch 55.2 (78181) - https://sketchapp.com -->
    <title>Endodoncia</title>
    <desc>Created with Sketch.</desc>
    <g id="Page-1" stroke="none" stroke-width="1" fill="none" fill-rule="evenodd">
        <g id="Artboard" transform="translate(-275.000000, -11.000000)" fill="#000000" fill-rule="nonzero">
            <g id="Endodoncia" transform="translate(275.000000, 11.000000)">
                <path d="M33.9195803,9.09000712 C33.7044448,6.93302441 33.0577019,5.09177877 31.9980591,3.61745284 C29.8493761,0.629583116 26.7840285,0.116427292 25.5653725,0.0333385899 C23.0799556,-0.134832943 21.6341378,0.365693398 20.3586913,0.807725293 C19.3565071,1.15470371 18.4111133,1.48240555 17.0000379,1.48240555 C15.5889624,1.48240555 14.6429005,1.15470371 13.6413844,0.807725293 C12.3659379,0.366358108 10.9201201,-0.134832943 8.4347032,0.0333385899 C7.21604716,0.116427292 4.15069963,0.629583116 2.00201661,3.61811755 C0.942373807,5.09244348 0.296967156,6.93368912 0.0804953596,9.09000712 C-0.163369473,11.5288267 0.147307642,14.3837545 1.0065136,17.5756901 C2.55455419,23.3360636 4.58965632,27.7683473 7.05502956,30.7489053 C9.03935436,33.148507 10.8305917,34 11.7612868,34 C13.0434145,34 13.9861358,33.4416439 14.5633939,32.338226 C15.021058,31.4634681 15.1900931,30.3753385 15.3531151,29.3231031 C15.679159,27.2173031 15.9330457,26.2940214 17.0000379,26.2940214 C18.06703,26.2940214 18.3209167,27.2173031 18.6469606,29.3231031 C18.8099826,30.3753385 18.981022,31.4634681 19.4366818,32.338226 C20.0139399,33.4396498 20.9566612,34 22.2387889,34 C23.169484,34 24.9607213,33.148507 26.9450461,30.7489053 C29.4104194,27.7676826 31.4455215,23.3360636 32.9935621,17.5763548 C33.8520999,14.3844192 34.1634452,11.5294914 33.9195803,9.09000712 Z M31.7027488,17.2326999 C29.8360136,24.1789154 27.5243086,27.9564602 25.9134645,29.9040593 C24.1850307,31.9945711 22.6911081,32.6705808 22.2387889,32.6705808 C20.6874077,32.6705808 20.3413201,31.534592 19.9671713,29.1223608 C19.8215206,28.1817967 19.6705248,27.2093266 19.3057297,26.4515576 C18.8306944,25.4671227 18.0550038,24.967261 17.0000379,24.9665963 C15.9450719,24.9665963 15.1687132,25.4664579 14.6936778,26.4515576 C14.3288828,27.2093266 14.177887,28.1798026 14.0322362,29.1223608 C13.6587556,31.534592 13.312668,32.6705808 11.7606186,32.6705808 C11.3082995,32.6705808 9.81437684,31.9945711 8.08594308,29.9040593 C5.16891882,26.3724571 3.3275723,21.0654156 2.2973269,17.2326999 C0.79405054,11.6438215 1.0679809,7.20289651 3.08905245,4.39183955 C4.90634654,1.865943 7.49866312,1.42922878 8.5255679,1.35943428 C10.7377226,1.20987461 11.9329943,1.62531812 13.2024277,2.06336176 C14.264743,2.43094618 15.3631369,2.81182479 17.000706,2.81182479 C18.638275,2.81182479 19.7393414,2.43094618 20.7983161,2.06336176 C22.0677495,1.62465341 23.261685,1.20987461 25.4751759,1.35943428 C26.5047532,1.42922878 29.0943973,1.86328416 30.9116914,4.39183955 C32.9320948,7.20289651 33.2060252,11.6438215 31.7027488,17.2326999 Z" id="Shape-Copy"></path>
                <g id="settings-2-outline" transform="translate(10.000000, 7.000000)">
                    <rect id="Rectangle" opacity="0" transform="translate(5.500000, 5.500000) rotate(180.000000) translate(-5.500000, -5.500000) " x="0" y="0" width="11" height="11"></rect>
                    <path d="M8.14803665,14.037037 L6.91953672,14.037037 C6.3164418,14.037037 5.82753678,13.5481313 5.82753678,12.9450364 L5.82753678,12.2365364 C5.82035135,12.1513295 5.76465664,12.0779138 5.68453679,12.0480364 C5.60332313,11.9960026 5.49925046,11.9960026 5.4180368,12.0480364 L4.93703683,12.5680364 C4.73325172,12.7732551 4.45599798,12.888667 4.16678687,12.888667 C3.87757575,12.888667 3.60032201,12.7732551 3.39653691,12.5680364 L2.50603696,11.6970365 C2.29779252,11.4936039 2.18058734,11.2146556 2.18103698,10.9235365 C2.18145466,10.6287776 2.29825959,10.3461096 2.50603696,10.1370365 L2.98703693,9.65603657 C3.03447563,9.58288788 3.03447563,9.48868527 2.98703693,9.41553658 C2.94803693,9.31803659 2.88303694,9.24653659 2.79203694,9.24653659 L2.12903698,9.24653659 C1.52489216,9.24296171 1.03703704,8.75219205 1.03703704,8.14803665 L1.03703704,6.91953672 C1.03703704,6.3164418 1.52594206,5.82753678 2.12903698,5.82753678 L2.83753694,5.82753678 C2.92274384,5.82035135 2.9961596,5.76465664 3.02603693,5.68453679 C3.07807078,5.60332313 3.07807078,5.49925046 3.02603693,5.4180368 L2.50603696,4.93703683 C2.30081829,4.73325172 2.18540637,4.45599798 2.18540637,4.16678687 C2.18540637,3.87757575 2.30081829,3.60032201 2.50603696,3.39653691 L3.37703691,2.50603696 C3.57847025,2.29878443 3.85502358,2.18160082 4.14403687,2.18103698 C4.44104664,2.17973361 4.72636794,2.29666857 4.93703683,2.50603696 L5.4180368,2.98703693 C5.49118549,3.03447563 5.5853881,3.03447563 5.65853679,2.98703693 C5.75603678,2.94803693 5.82753678,2.88303694 5.82753678,2.79203694 L5.82753678,2.12903698 C5.83111166,1.52489216 6.32188132,1.03703704 6.92603672,1.03703704 L8.18703665,1.03703704 C8.79013156,1.03703704 9.27903659,1.52594206 9.27903659,2.12903698 L9.27903659,2.83753694 C9.28622201,2.92274384 9.34191673,2.9961596 9.42203658,3.02603693 C9.50325024,3.07807078 9.60732291,3.07807078 9.68853657,3.02603693 L10.1370365,2.50603696 C10.3408216,2.30081829 10.6180754,2.18540637 10.9072865,2.18540637 C11.1964976,2.18540637 11.4737514,2.30081829 11.6775365,2.50603696 L12.5680364,3.37703691 C12.7756606,3.58089084 12.8927509,3.85956581 12.8930364,4.15053687 C12.8993781,4.4466022 12.7815237,4.73180991 12.5680364,4.93703683 L12.0870364,5.4180368 C12.0395977,5.49118549 12.0395977,5.5853881 12.0870364,5.65853679 C12.1260364,5.75603678 12.1910364,5.82753678 12.2820364,5.82753678 L12.9905364,5.82753678 C13.5768231,5.85532077 14.0376943,6.33909238 14.037037,6.92603672 L14.037037,8.18703665 C14.037037,8.79013156 13.5481313,9.27903659 12.9450364,9.27903659 L12.2365364,9.27903659 C12.1513295,9.28622201 12.0779138,9.34191673 12.0480364,9.42203658 C12.0005977,9.49518527 12.0005977,9.58938788 12.0480364,9.66253657 L12.5485364,10.1630365 C12.7537551,10.3668216 12.869167,10.6440754 12.869167,10.9332865 C12.869167,11.2224976 12.7537551,11.4997514 12.5485364,11.7035365 L11.6970365,12.5680364 C11.4956031,12.7752889 11.2190498,12.8924726 10.9300365,12.8930364 C10.6397891,12.8892249 10.3624025,12.7726759 10.1565365,12.5680364 L9.65603657,12.0870364 C9.58288788,12.0395977 9.48868527,12.0395977 9.41553658,12.0870364 C9.31803659,12.1260364 9.24653659,12.1910364 9.24653659,12.2820364 L9.24653659,12.9905364 C9.2187526,13.5768231 8.734981,14.0376943 8.14803665,14.037037 Z M7.13891204,12.5925926 L7.93516204,12.5925926 L7.93516204,12.1059954 C7.94066694,11.5100241 8.30489992,10.9761484 8.85780093,10.7536343 C9.4130549,10.5109245 10.0599661,10.6283176 10.494537,11.0506481 L10.835787,11.3918981 L11.3918981,10.835787 L11.0506481,10.4882176 C10.6310275,10.0602618 10.5112297,9.4213404 10.7473148,8.87043981 C10.9718083,8.32001859 11.505251,7.95857376 12.0996759,7.95412037 L12.5925926,7.95412037 L12.5925926,7.13891204 L12.1059954,7.13891204 C11.5100241,7.13340713 10.9761484,6.76917415 10.7536343,6.21627315 C10.5109245,5.66101917 10.6283176,5.01410802 11.0506481,4.57953704 L11.3918981,4.23828704 L10.835787,3.68217593 L10.4882176,4.02342593 C10.0543405,4.41974179 9.42998242,4.52842306 8.88771012,4.30202438 C8.34543782,4.07562569 7.98370962,3.5552534 7.96043981,2.9680787 L7.96043981,2.48148148 L7.13891204,2.48148148 L7.13891204,2.9680787 C7.13340713,3.56404996 6.76917415,4.0979257 6.21627315,4.32043981 C5.66101917,4.5631496 5.01410802,4.44575646 4.57953704,4.02342593 L4.23828704,3.68217593 L3.68217593,4.23828704 L4.02342593,4.58585648 C4.41974179,5.01973359 4.52842306,5.64409166 4.30202438,6.18636396 C4.07562569,6.72863625 3.5552534,7.09036446 2.9680787,7.11363426 L2.48148148,7.11363426 L2.48148148,7.90988426 L2.9680787,7.90988426 C3.56404996,7.91538917 4.0979257,8.27962215 4.32043981,8.83252315 C4.5631496,9.38777712 4.44575646,10.0346883 4.02342593,10.4692593 L3.68217593,10.8105093 L4.23828704,11.3666204 L4.58585648,11.0253704 C5.01973359,10.6290545 5.64409166,10.5203732 6.18636396,10.7467719 C6.72863625,10.9731706 7.09036446,11.4935429 7.11363426,12.0807176 L7.13891204,12.5925926 Z" id="Shape"></path>
                    <path d="M7.55559209,10.0555556 C6.54445126,10.0555556 5.63287386,9.44645901 5.24592702,8.51228669 C4.85898017,7.57811437 5.07286643,6.50283552 5.78785098,5.78785098 C6.50283552,5.07286643 7.57811437,4.85898017 8.51228669,5.24592702 C9.44645901,5.63287386 10.0555556,6.54445126 10.0555556,7.55559209 C10.0555556,8.93628379 8.93628379,10.0555556 7.55559209,10.0555556 L7.55559209,10.0555556 Z M7.55555556,6.72222222 C7.09531826,6.72222222 6.72222222,7.09531826 6.72222222,7.55555556 C6.72222222,8.01579285 7.09531826,8.38888889 7.55555556,8.38888889 C8.01579285,8.38888889 8.38888889,8.01579285 8.38888889,7.55555556 C8.38888889,7.09531826 8.01579285,6.72222222 7.55555556,6.72222222 Z" id="Shape"></path>
                </g>
            </g>
        </g>
    </g>
</svg>