<?xml version="1.0" encoding="UTF-8"?>
<svg width="34px" height="34px" viewBox="0 0 34 34" version="1.1" xmlns="http://www.w3.org/2000/svg" xmlns:xlink="http://www.w3.org/1999/xlink">
    <!-- Generator: Sketch 55.2 (78181) - https://sketchapp.com -->
    <title>Novedades</title>
    <desc>Created with Sketch.</desc>
    <g id="Page-1" stroke="none" stroke-width="1" fill="none" fill-rule="evenodd">
        <g id="Artboard" transform="translate(-44.000000, -224.000000)" fill="#000000" fill-rule="nonzero">
            <g id="Novedades" transform="translate(44.000000, 224.000000)">
                <path d="M33.9195803,9.09000712 C33.7044448,6.93302441 33.0577019,5.09177877 31.9980591,3.61745284 C29.8493761,0.629583116 26.7840285,0.116427292 25.5653725,0.0333385899 C23.0799556,-0.134832943 21.6341378,0.365693398 20.3586913,0.807725293 C19.3565071,1.15470371 18.4111133,1.48240555 17.0000379,1.48240555 C15.5889624,1.48240555 14.6429005,1.15470371 13.6413844,0.807725293 C12.3659379,0.366358108 10.9201201,-0.134832943 8.4347032,0.0333385899 C7.21604716,0.116427292 4.15069963,0.629583116 2.00201661,3.61811755 C0.942373807,5.09244348 0.296967156,6.93368912 0.0804953596,9.09000712 C-0.163369473,11.5288267 0.147307642,14.3837545 1.0065136,17.5756901 C2.55455419,23.3360636 4.58965632,27.7683473 7.05502956,30.7489053 C9.03935436,33.148507 10.8305917,34 11.7612868,34 C13.0434145,34 13.9861358,33.4416439 14.5633939,32.338226 C15.021058,31.4634681 15.1900931,30.3753385 15.3531151,29.3231031 C15.679159,27.2173031 15.9330457,26.2940214 17.0000379,26.2940214 C18.06703,26.2940214 18.3209167,27.2173031 18.6469606,29.3231031 C18.8099826,30.3753385 18.981022,31.4634681 19.4366818,32.338226 C20.0139399,33.4396498 20.9566612,34 22.2387889,34 C23.169484,34 24.9607213,33.148507 26.9450461,30.7489053 C29.4104194,27.7676826 31.4455215,23.3360636 32.9935621,17.5763548 C33.8520999,14.3844192 34.1634452,11.5294914 33.9195803,9.09000712 Z M31.7027488,17.2326999 C29.8360136,24.1789154 27.5243086,27.9564602 25.9134645,29.9040593 C24.1850307,31.9945711 22.6911081,32.6705808 22.2387889,32.6705808 C20.6874077,32.6705808 20.3413201,31.534592 19.9671713,29.1223608 C19.8215206,28.1817967 19.6705248,27.2093266 19.3057297,26.4515576 C18.8306944,25.4671227 18.0550038,24.967261 17.0000379,24.9665963 C15.9450719,24.9665963 15.1687132,25.4664579 14.6936778,26.4515576 C14.3288828,27.2093266 14.177887,28.1798026 14.0322362,29.1223608 C13.6587556,31.534592 13.312668,32.6705808 11.7606186,32.6705808 C11.3082995,32.6705808 9.81437684,31.9945711 8.08594308,29.9040593 C5.16891882,26.3724571 3.3275723,21.0654156 2.2973269,17.2326999 C0.79405054,11.6438215 1.0679809,7.20289651 3.08905245,4.39183955 C4.90634654,1.865943 7.49866312,1.42922878 8.5255679,1.35943428 C10.7377226,1.20987461 11.9329943,1.62531812 13.2024277,2.06336176 C14.264743,2.43094618 15.3631369,2.81182479 17.000706,2.81182479 C18.638275,2.81182479 19.7393414,2.43094618 20.7983161,2.06336176 C22.0677495,1.62465341 23.261685,1.20987461 25.4751759,1.35943428 C26.5047532,1.42922878 29.0943973,1.86328416 30.9116914,4.39183955 C32.9320948,7.20289651 33.2060252,11.6438215 31.7027488,17.2326999 Z" id="Shape-Copy-4"></path>
                <g id="award-outline-(1)" transform="translate(15.000000, 2.000000)">
                    <rect id="Rectangle" opacity="0" x="0" y="0" width="19" height="19"></rect>
                    <path d="M13.9795888,14.2720959 L12.5013428,8.38148985 C13.0478878,7.68598554 13.3438851,6.81936211 13.3396555,5.92707068 C13.3396555,3.75820943 11.620608,2 9.50005538,2 C7.3795028,2 5.66045528,3.75820943 5.66045528,5.92707068 C5.65870176,6.82624812 5.96173973,7.69824779 6.51796597,8.39458008 L5.02052194,14.2720959 C4.95537722,14.5290225 5.04839399,14.8007497 5.25600478,14.960005 C5.46361557,15.1192603 5.74470803,15.134507 5.96762329,14.9986039 L9.37846804,12.9499821 L13.0132895,15.0051491 C13.1115092,15.0657707 13.2250474,15.0953711 13.3396555,15.0902356 C13.5411233,15.0968092 13.7338441,15.0059126 13.8597641,14.8449269 C13.9856841,14.6839411 14.0300839,14.4716846 13.9795888,14.2720959 L13.9795888,14.2720959 Z M9.50005538,3.30902356 C10.9137571,3.30902356 12.0597888,4.48116318 12.0597888,5.92707068 C12.0597888,7.37297817 10.9137571,8.54511779 9.50005538,8.54511779 C8.08635366,8.54511779 6.94032198,7.37297817 6.94032198,5.92707068 C6.94032198,4.48116318 8.08635366,3.30902356 9.50005538,3.30902356 Z M9.69843471,11.6278683 C9.50043865,11.510951 9.25649743,11.510951 9.05850137,11.6278683 L6.65875131,13.0677942 L7.58025533,9.33707705 C8.75309509,10.0265385 10.195821,10.0265385 11.3686608,9.33707705 L12.3477588,13.1267002 L9.69843471,11.6278683 Z" id="Shape"></path>
                </g>
            </g>
        </g>
    </g>
</svg>