<?xml version="1.0" encoding="UTF-8"?>
<svg width="34px" height="34px" viewBox="0 0 34 34" version="1.1" xmlns="http://www.w3.org/2000/svg" xmlns:xlink="http://www.w3.org/1999/xlink">
    <!-- Generator: Sketch 55.2 (78181) - https://sketchapp.com -->
    <title>Odontopediatría</title>
    <desc>Created with Sketch.</desc>
    <g id="Page-1" stroke="none" stroke-width="1" fill="none" fill-rule="evenodd">
        <g id="Artboard" transform="translate(-174.000000, -11.000000)" fill="#000000">
            <g id="Odontopediatría" transform="translate(174.000000, 11.000000)">
                <path d="M33.9195803,9.09000712 C33.7044448,6.93302441 33.0577019,5.09177877 31.9980591,3.61745284 C29.8493761,0.629583116 26.7840285,0.116427292 25.5653725,0.0333385899 C23.0799556,-0.134832943 21.6341378,0.365693398 20.3586913,0.807725293 C19.3565071,1.15470371 18.4111133,1.48240555 17.0000379,1.48240555 C15.5889624,1.48240555 14.6429005,1.15470371 13.6413844,0.807725293 C12.3659379,0.366358108 10.9201201,-0.134832943 8.4347032,0.0333385899 C7.21604716,0.116427292 4.15069963,0.629583116 2.00201661,3.61811755 C0.942373807,5.09244348 0.296967156,6.93368912 0.0804953596,9.09000712 C-0.163369473,11.5288267 0.147307642,14.3837545 1.0065136,17.5756901 C2.55455419,23.3360636 4.58965632,27.7683473 7.05502956,30.7489053 C9.03935436,33.148507 10.8305917,34 11.7612868,34 L11.7612868,34 C13.0434145,34 13.9861358,33.4416439 14.5633939,32.338226 C15.021058,31.4634681 15.1900931,30.3753385 15.3531151,29.3231031 C15.679159,27.2173031 15.9330457,26.2940214 17.0000379,26.2940214 C18.06703,26.2940214 18.3209167,27.2173031 18.6469606,29.3231031 C18.8099826,30.3753385 18.981022,31.4634681 19.4366818,32.338226 C20.0139399,33.4396498 20.9566612,34 22.2387889,34 C23.169484,34 24.9607213,33.148507 26.9450461,30.7489053 C29.4104194,27.7676826 31.4455215,23.3360636 32.9935621,17.5763548 C33.8520999,14.3844192 34.1634452,11.5294914 33.9195803,9.09000712 Z M31.7027488,17.2326999 C29.8360136,24.1789154 27.5243086,27.9564602 25.9134645,29.9040593 C24.1850307,31.9945711 22.6911081,32.6705808 22.2387889,32.6705808 C20.6874077,32.6705808 20.3413201,31.534592 19.9671713,29.1223608 C19.8215206,28.1817967 19.6705248,27.2093266 19.3057297,26.4515576 C18.8306944,25.4671227 18.0550038,24.967261 17.0000379,24.9665963 L17.0000379,24.9665963 C15.9450719,24.9665963 15.1687132,25.4664579 14.6936778,26.4515576 C14.3288828,27.2093266 14.177887,28.1798026 14.0322362,29.1223608 C13.6587556,31.534592 13.312668,32.6705808 11.7606186,32.6705808 C11.3082995,32.6705808 9.81437684,31.9945711 8.08594308,29.9040593 C5.16891882,26.3724571 3.3275723,21.0654156 2.2973269,17.2326999 C0.79405054,11.6438215 1.0679809,7.20289651 3.08905245,4.39183955 C4.90634654,1.865943 7.49866312,1.42922878 8.5255679,1.35943428 C10.7377226,1.20987461 11.9329943,1.62531812 13.2024277,2.06336176 C14.264743,2.43094618 15.3631369,2.81182479 17.000706,2.81182479 C18.638275,2.81182479 19.7393414,2.43094618 20.7983161,2.06336176 C22.0677495,1.62465341 23.261685,1.20987461 25.4751759,1.35943428 C26.5047532,1.42922878 29.0943973,1.86328416 30.9116914,4.39183955 C32.9320948,7.20289651 33.2060252,11.6438215 31.7027488,17.2326999 Z" id="Shape" fill-rule="nonzero"></path>
                <g id="noun_Children_671579" transform="translate(8.000000, 8.000000)">
                    <path d="M14.7642239,11.3928125 C14.7642239,10.8248466 14.3053856,10.3638887 13.7406406,10.3638887 C13.1756226,10.3638887 12.7170573,10.8248466 12.7170573,11.3928125 C12.7170573,11.9605041 13.1756226,12.4217363 13.7406406,12.4217363 C14.3053856,12.4217363 14.7642239,11.9605041 14.7642239,11.3928125 Z M6.16612391,11.3928125 C6.16612391,10.8248466 5.70728562,10.3638887 5.14254058,10.3638887 C4.57752258,10.3638887 4.11895724,10.8248466 4.11895724,11.3928125 C4.11895724,11.9605041 4.57752258,12.4217363 5.14254058,12.4217363 C5.70728562,12.4217363 6.16612391,11.9605041 6.16612391,11.3928125 Z M11.6934739,11.3928125 C11.6934739,10.2566063 12.6103316,9.33496498 13.7406406,9.33496498 C14.8706766,9.33496498 15.7878073,10.2566063 15.7878073,11.3928125 C15.7878073,12.5287444 14.8706766,13.4506601 13.7406406,13.4506601 C12.6103316,13.4506601 11.6934739,12.5287444 11.6934739,11.3928125 Z M3.09537391,11.3928125 C3.09537391,10.2566063 4.01223162,9.33496498 5.14254058,9.33496498 C6.27257658,9.33496498 7.18970724,10.2566063 7.18970724,11.3928125 C7.18970724,12.5287444 6.27257658,13.4506601 5.14254058,13.4506601 C4.01223162,13.4506601 3.09537391,12.5287444 3.09537391,11.3928125 Z M6.53843529,3.52717047 L3.75101315,3.52717047 L3.75101315,4.55609424 L6.53843529,4.55609424 L6.53843529,3.52717047 Z M3.75046724,0.589112941 C3.75046724,0.30512998 3.97974991,0.0746510559 4.26225891,0.0746510559 C4.54449495,0.0746510559 4.77405058,0.30512998 4.77405058,0.589112941 L4.77405058,2.44117573 L4.76231349,2.4982467 L5.50611738,2.4982467 L5.49465324,2.44117573 L5.49465324,0.589112941 C5.49465324,0.30512998 5.72393591,0.0746510559 6.00644491,0.0746510559 C6.28868095,0.0746510559 6.51823658,0.30512998 6.51823658,0.589112941 L6.51823658,2.44117573 L6.50649949,2.4982467 L7.04340307,2.4982467 C7.32482024,2.4982467 7.55382996,2.72707934 7.55492178,3.01023916 L7.55492178,6.98435433 L9.28491409,5.26975576 C9.4844446,5.06973298 9.80789694,5.06973298 10.0074274,5.26975576 L11.502678,6.76786877 L10.9234663,2.67330093 C10.8797934,2.36380066 11.1191754,2.08667719 11.4303448,2.08667719 L12.3485673,2.08667719 L12.3485673,0.589112941 C12.3485673,0.30512998 12.5778499,0.0746510559 12.8603589,0.0746510559 C13.142595,0.0746510559 13.3721506,0.30512998 13.3721506,0.589112941 L13.3721506,2.08667719 L14.0927533,2.08667719 L14.0927533,0.589112941 C14.0927533,0.30512998 14.3220359,0.0746510559 14.6045449,0.0746510559 C14.886781,0.0746510559 15.1163366,0.30512998 15.1163366,0.589112941 L15.1163366,2.08667719 L16.0509364,2.08667719 C16.3618328,2.08667719 16.6012148,2.36380066 16.5575419,2.67330093 L15.9783302,6.76786877 L17.4735808,5.26975576 C17.6736572,5.06918422 17.9979284,5.06973298 18.1971859,5.27085328 C18.3967165,5.47197358 18.3961705,5.79793663 18.1960941,5.99823379 L15.617483,8.58206716 C15.2711024,8.92943182 14.6806995,8.63227864 14.7494843,8.1455291 L15.4610795,3.11560096 L12.0199288,3.11560096 L12.7315239,8.1455291 C12.8003087,8.63227864 12.2099058,8.92943182 11.8635252,8.58206716 L9.64630725,6.36041496 L7.42881631,8.58206716 C7.10809353,8.90364013 6.55781513,8.67563063 6.55590444,8.22016037 L6.55590444,5.585018 L3.72890375,5.585018 L3.72890375,8.22016037 C3.72699306,8.67563063 3.17671466,8.90364013 2.85599188,8.58206716 L0.277380748,5.99823379 C0.0773043258,5.79793663 0.0767584147,5.47197358 0.276288926,5.27085328 C0.475546482,5.06973298 0.799817682,5.06918422 0.999894105,5.26975576 L2.72988642,6.98435433 L2.72988642,3.01023916 C2.73097824,2.72707934 2.95998795,2.4982467 3.24167808,2.4982467 L3.76193137,2.4982467 L3.75046724,2.44117573 L3.75046724,0.589112941 Z" id="Shape" transform="translate(9.236737, 6.762656) scale(-1, 1) rotate(-180.000000) translate(-9.236737, -6.762656) "></path>
                </g>
            </g>
        </g>
    </g>
</svg>